<?xml version="1.0" encoding="iso-8859-1"?>
<!-- Generator: Adobe Illustrator 19.0.0, SVG Export Plug-In . SVG Version: 6.00 Build 0)  -->
<svg version="1.1" id="Layer_1" xmlns="http://www.w3.org/2000/svg" xmlns:xlink="http://www.w3.org/1999/xlink" x="0px" y="0px"
	 viewBox="0 0 301 301" style="enable-background:new 0 0 301 301;" xml:space="preserve">
<g>
	<g>
		<g>
			<path d="M238.565,3.961c-34.427,0-62.435,34.551-62.435,77.019c0,23.995,9.026,46.524,24.3,61.047v116.877
				c0,21.027,17.107,38.135,38.135,38.135c21.027,0,38.135-17.107,38.135-38.135V142.027c15.273-14.524,24.3-37.053,24.3-61.047
				C301,38.512,272.992,3.961,238.565,3.961z M245.679,143.128c-4.071,0.764-6.752,4.683-5.988,8.754
				c0.762,4.066,4.674,6.753,8.754,5.989c4.826-0.905,9.365-2.784,13.256-4.868v105.9c0,12.756-10.378,23.135-23.135,23.135
				c-12.757,0-23.135-10.378-23.135-23.135V138.692c0-2.198-0.964-4.285-2.637-5.709c-13.564-11.554-21.663-30.994-21.663-52.002
				c0-34.197,21.279-62.019,47.434-62.019C264.721,18.961,286,46.783,286,80.98C286,118.576,261.344,140.191,245.679,143.128z"/>
			<path d="M122.707,3.961c-10.609,0-19.241,8.631-19.241,19.241v32.707H90.214V23.202c0-10.609-8.631-19.241-19.241-19.241
				c-10.609,0-19.241,8.631-19.241,19.241v32.707H38.481V23.202c0-10.609-8.631-19.241-19.241-19.241S0,12.593,0,23.202v67.01
				c0,19.681,14.166,36.115,32.839,39.64v129.052c0,21.027,17.107,38.135,38.135,38.135c21.027,0,38.135-17.107,38.135-38.135
				V129.852c18.672-3.524,32.839-19.958,32.839-39.64v-67.01C141.948,12.593,133.316,3.961,122.707,3.961z M126.949,90.212
				L126.949,90.212c-0.001,13.972-11.368,25.339-25.34,25.339c-4.142,0-7.5,3.358-7.5,7.5v135.853
				c0,12.756-10.378,23.135-23.135,23.135c-12.756,0-23.135-10.378-23.135-23.135V130.551h8.964c4.142,0,7.5-3.358,7.5-7.5
				c0-4.142-3.358-7.5-7.5-7.5H40.339C26.367,115.551,15,104.184,15,90.212v-67.01c0-2.338,1.902-4.241,4.241-4.241
				c2.339,0,4.241,1.902,4.241,4.241v40.207c0,4.142,3.358,7.5,7.5,7.5h28.252c4.142,0,7.5-3.358,7.5-7.5V23.202
				c0-2.338,1.903-4.241,4.241-4.241c2.338,0,4.24,1.902,4.24,4.241v40.207c0,4.142,3.358,7.5,7.5,7.5h28.252
				c4.142,0,7.5-3.358,7.5-7.5V23.202c0-2.338,1.902-4.241,4.241-4.241c2.338,0,4.241,1.902,4.241,4.241V90.212z"/>
		</g>
	</g>
</g>
<g>
</g>
<g>
</g>
<g>
</g>
<g>
</g>
<g>
</g>
<g>
</g>
<g>
</g>
<g>
</g>
<g>
</g>
<g>
</g>
<g>
</g>
<g>
</g>
<g>
</g>
<g>
</g>
<g>
</g>
</svg>
