<?xml version="1.0" encoding="iso-8859-1"?>
<!-- Generator: Adobe Illustrator 19.0.0, SVG Export Plug-In . SVG Version: 6.00 Build 0)  -->
<svg version="1.1" id="Layer_1" xmlns="http://www.w3.org/2000/svg" xmlns:xlink="http://www.w3.org/1999/xlink" x="0px" y="0px"
	 viewBox="0 0 317.094 317.094" style="enable-background:new 0 0 317.094 317.094;" xml:space="preserve">
<g>
	<g>
		<path d="M280.105,191.009c-8.009,0-15.631,2.532-21.95,7.219v-36.281l25.558,15.899c4.975,3.093,11.462-0.482,11.462-6.368v-61.92
			c0-2.592-1.338-4.999-3.538-6.368L151.549,16.045c-2.426-1.51-5.498-1.51-7.924,0L3.538,103.189
			C1.338,104.558,0,106.965,0,109.557v61.92c0,5.881,6.476,9.467,11.462,6.368l25.557-15.898v132.735c0,4.142,3.357,7.5,7.5,7.5
			c7.843,0,198.282,0,206.137,0c6.011,0,11.617-2.386,15.785-6.718l40.364-41.956c0.098-0.102,0.191-0.204,0.282-0.31
			C329.163,229.634,312.293,191.009,280.105,191.009z M15,157.979v-44.255l132.587-82.479l132.588,82.479v44.255
			c-4.125-2.566-121.791-75.763-128.626-80.015c-2.426-1.51-5.498-1.51-7.924,0C136.783,82.221,19.077,155.443,15,157.979z
			 M168.56,287.182h-41.946V185.027h41.946V287.182z M183.561,287.182V177.527c0-4.143-3.357-7.5-7.5-7.5h-56.946
			c-4.143,0-7.5,3.357-7.5,7.5v109.655H52.019V152.616l95.568-59.45l95.568,59.45v45.611c-10.609-7.957-22.888-7.301-20.116-7.173
			c-33.342-1.531-51.525,38.253-28.534,62.454l32.396,33.674H183.561z M295.971,243.123c-0.076,0.08-0.151,0.161-0.224,0.244
			l-40.117,41.697c-2.741,2.851-7.258,2.802-9.95,0c-71.991-74.83-15.889-16.512-40.341-41.941
			c-13.602-14.234-2.923-37.06,15.8-37.113c0.021,0,0.043,0,0.064,0c5.852,0,11.355,2.273,15.5,6.406
			c4.161,4.149,6.452,9.67,6.452,15.546c0,4.143,3.357,7.5,7.5,7.5s7.5-3.357,7.5-7.5c0-5.876,2.291-11.396,6.452-15.546
			c4.049-4.037,9.49-6.406,15.565-6.406C298.914,206.063,309.56,228.907,295.971,243.123z"/>
	</g>
</g>
<g>
</g>
<g>
</g>
<g>
</g>
<g>
</g>
<g>
</g>
<g>
</g>
<g>
</g>
<g>
</g>
<g>
</g>
<g>
</g>
<g>
</g>
<g>
</g>
<g>
</g>
<g>
</g>
<g>
</g>
</svg>
