<?xml version="1.0" encoding="iso-8859-1"?>
<!-- Generator: Adobe Illustrator 18.0.0, SVG Export Plug-In . SVG Version: 6.00 Build 0)  -->
<!DOCTYPE svg PUBLIC "-//W3C//DTD SVG 1.1//EN" "http://www.w3.org/Graphics/SVG/1.1/DTD/svg11.dtd">
<svg version="1.1" id="Capa_1" xmlns="http://www.w3.org/2000/svg" xmlns:xlink="http://www.w3.org/1999/xlink" x="0px" y="0px"
	 viewBox="0 0 412.148 412.148" style="enable-background:new 0 0 412.148 412.148;" xml:space="preserve">
<path d="M350.009,141.021c-5.899-3.287-12.575-3.422-18.833-0.612c-3.437-5.938-8.934-9.729-15.642-10.506
	c-9.44-1.092-18.815,4.226-23.318,13.242c-2.571,5.145-6.092,17.018,3.072,34.168c-20.25,4.78-37.439,15.932-50.663,32.832
	c-0.558-9.824,0.516-23.105,7.654-34.726c1.359,0.485,2.795,0.952,4.313,1.395c0.561,0.164,1.723,0.238,1.723,0.238
	c1.395,0,2.795-0.483,3.932-1.47c19.027-16.527,16.67-29.782,14.773-34.714c-2.586-6.728-8.94-11.155-15.779-11.028
	c-4.232,0.081-8.043,1.907-10.875,5.023c-3.878-1.65-8.107-1.719-11.988-0.021c-6.279,2.746-10.188,9.424-9.725,16.619
	c0.25,3.875,2.165,11.936,12.759,18.737c-12.902,21.947-8.635,47.19-6.788,55.186c-0.134,0.245-4.653,9.209-6.303,13.226
	c-2.693-23.975-5.383-49.842-7.898-76.987c-0.145-12.526,2.512-45.638,15.47-55.821c2.299,4.12,5.226,8.424,8.638,13.142
	c1.819,2.516,5.07,2.385,5.223,2.373c40.887-3.045,50.484-21.85,52.715-29.793c2.883-10.274-0.67-21.111-8.844-26.965
	c-5.901-4.229-13.043-5.127-20.075-2.764c-2.863-6.85-8.253-11.626-15.327-13.271c-9.789-2.276-20.279,2.205-26.096,11.151
	c-3.253,5.002-8.221,16.654-1.386,35.099c-6.53,4.143-11.162,11.054-14.439,18.937c-1.464-18.46-2.814-37.31-3.996-56.41
	c26.587-15.758,27.293-32.389,26.287-38.986c-1.381-9.042-8.004-16.252-16.482-17.94c-5.842-1.164-11.482,0.425-16.037,4.303
	c-4.555-3.878-10.195-5.466-16.037-4.303c-8.479,1.688-15.102,8.898-16.482,17.941c-1.006,6.597-0.3,23.227,26.287,38.984
	c-1.182,19.097-2.532,37.944-3.996,56.403c-3.274-7.88-7.908-14.784-14.437-18.926c6.836-18.446,1.867-30.099-1.385-35.102
	c-5.818-8.947-16.303-13.427-26.098-11.151c-7.072,1.646-12.463,6.422-15.326,13.271c-7.033-2.363-14.174-1.464-20.076,2.764
	c-8.172,5.853-11.727,16.69-8.842,26.965c2.229,7.943,11.828,26.748,52.715,29.793c0.152,0.012,3.717-0.13,5.223-2.373
	c3.245-4.834,6.338-9.021,8.637-13.141c12.958,10.186,15.615,43.295,15.469,55.819c-2.516,27.148-5.205,53.019-7.899,76.996
	c-1.651-4.02-6.167-12.987-6.301-13.231c1.846-7.995,6.124-33.243-6.78-55.193c10.588-6.801,12.502-14.858,12.75-18.732
	c0.465-7.194-3.443-13.873-9.723-16.619c-3.883-1.697-8.111-1.63-11.99,0.021c-2.831-3.116-6.641-4.942-10.873-5.023
	c-6.836-0.129-13.193,4.3-15.781,11.027c-1.896,4.933-4.254,18.188,14.775,34.716c1.135,0.986,2.537,1.469,3.932,1.469
	c0,0,1.162-0.074,1.723-0.238c1.513-0.44,2.943-0.905,4.298-1.39c7.141,11.621,8.227,24.9,7.672,34.724
	c-13.226-16.903-30.422-28.04-50.675-32.82c9.176-17.157,5.654-29.036,3.082-34.183c-4.506-9.016-13.875-14.342-23.318-13.242
	c-6.709,0.777-12.206,4.567-15.643,10.505c-6.259-2.811-12.934-2.675-18.834,0.614c-8.303,4.627-12.797,14.421-11.186,24.369
	c1.236,7.644,8.178,26.189,45.803,33.325c0.377,0.072,0.754,0.107,1.125,0.107v-0.005c1.587-0.001,3.169-0.627,4.348-1.868
	c2.91-3.064,5.415-6.018,7.601-8.867c24.825,4.472,44.116,19.057,57.366,43.409c9.377,17.236,12.477,33.873,13.089,37.631
	c-1.92,16.018-3.801,30.923-5.576,44.49c-4.435-16.009-12.155-32.185-25.582-40.699c15.463-14.031,15.301-26.777,14.216-32.334
	c-1.771-9.068-8.756-16.066-17.381-17.414c-5.957-0.931-11.6,0.924-16.041,5.057c-4.769-3.751-10.545-5.132-16.406-3.709
	c-8.482,2.059-14.861,9.611-15.875,18.794c-0.77,6.979,0.775,24.859,31.688,40.093c0.853,0.421,1.758,0.62,2.648,0.62l0.014-0.058
	l0.016,0.057c1.051,0,2.117-0.276,3.084-0.857c1.237-0.743,2.404-1.486,3.54-2.23c8.56,3.547,14.688,11.278,19.066,20.553
	c-6.191-0.887-13.566-0.178-21.219,3.853c-1.594-4.606-4.117-7.427-5.839-8.918c-5.451-4.719-13.133-5.646-19.115-2.305
	c-3.691,2.061-6.193,5.46-7.228,9.536c-4.185,0.377-7.933,2.307-10.552,5.622c-4.248,5.377-4.553,13.107-0.76,19.236
	c2.23,3.603,8.543,10.678,23.68,10.678c3.738,0,8.018-0.432,12.902-1.454l-0.004-0.018c1.928-0.406,3.619-1.737,4.375-3.713
	c2.254-5.886,3.424-10.961,3.849-15.318c11.595-8.809,21.376-5.121,25.091-3.088c5.347,18.9,5.782,38.667,5.817,42.021
	c-3.616,25.311-6.14,40.893-6.153,41.063c-0.088,1.166,0.082,3.47,2.232,5.791c3.053,3.296,10.652,7.678,41.289,7.678
	c0.005,0,0.01-0.001,0.015-0.001c0.005,0,0.01,0.001,0.015,0.001c30.635,0,38.236-4.382,41.289-7.678
	c2.148-2.32,2.32-4.623,2.23-5.79c-0.012-0.171-2.536-15.752-6.152-41.063c-0.009-9.485,1.372-26.382,5.953-42.108
	c3.688-1.989,13.417-5.591,24.953,3.174c0.426,4.357,1.596,9.434,3.85,15.319c0.756,1.977,2.447,3.307,4.375,3.713l-0.004,0.018
	c4.887,1.022,9.164,1.455,12.902,1.454c15.135,0,21.449-7.074,23.68-10.678c3.795-6.129,3.49-13.859-0.758-19.236
	c-2.619-3.315-6.367-5.245-10.553-5.622c-1.033-4.075-3.535-7.475-7.227-9.535c-5.984-3.341-13.666-2.415-19.115,2.304
	c-1.723,1.491-4.247,4.313-5.841,8.92c-7.567-3.985-14.864-4.726-21.013-3.885c4.465-9.372,10.583-17.037,18.868-20.518
	c1.134,0.741,2.298,1.483,3.532,2.225c0.969,0.582,2.033,0.857,3.084,0.857l0.017-0.061l0.015,0.062c0.891,0,1.795-0.199,2.647-0.62
	c30.912-15.233,32.459-33.113,31.689-40.094c-1.014-9.182-7.395-16.734-15.875-18.793c-5.864-1.422-11.641-0.042-16.408,3.709
	c-4.441-4.133-10.083-5.987-16.039-5.057c-8.625,1.348-15.609,8.346-17.381,17.413c-1.087,5.559-1.248,18.307,14.22,32.34
	c-13.428,8.514-21.154,24.684-25.588,40.691c-1.776-13.564-3.656-28.467-5.576-44.483c1.259-7.733,13.262-70.665,70.457-81.041
	c2.185,2.849,4.689,5.8,7.599,8.864c1.179,1.241,2.762,1.867,4.35,1.868v0.005c0.371,0,0.746-0.034,1.125-0.107
	c37.623-7.136,44.565-25.682,45.803-33.325C362.806,155.442,358.31,145.649,350.009,141.021z M242.187,66.216
	c3.549-5.46,9.238-6.951,13.316-6.004c4.497,1.046,7.383,4.85,8.148,10.713c0.081,1.009,0.414,2.011,1.028,2.905
	c1.873,2.731,5.607,3.428,8.342,1.555c4.978-3.415,9.813-3.795,13.615-1.071c4.084,2.925,5.803,8.538,4.277,13.968
	c-3.063,10.915-17.451,18.571-38.749,20.771C239.752,91.592,236.006,75.724,242.187,66.216z M159.985,109.052
	c-21.3-2.199-35.689-9.855-38.751-20.771c-1.523-5.43,0.195-11.043,4.277-13.968c3.778-2.706,8.576-2.345,13.519,1.009
	c0.791,0.564,1.731,0.944,2.765,1.068c3.291,0.389,6.277-1.953,6.672-5.243c0.719-5.992,3.623-9.876,8.178-10.936
	c4.072-0.946,9.768,0.543,13.316,6.004C176.143,75.724,172.397,91.592,159.985,109.052z M95.758,186.259
	c-19.08-4.231-31.317-12.633-32.962-22.786c-0.932-5.754,1.934-10.157,5.185-11.971c3.613-2.014,7.854-1.178,11.934,2.359
	l0.005-0.006c0.709,0.617,1.571,1.078,2.55,1.31c3.223,0.766,6.457-1.231,7.221-4.456c1.244-5.254,4.193-8.41,8.305-8.887
	c3.703-0.428,8.598,1.472,11.203,6.687C113.795,157.712,108.773,171.678,95.758,186.259z M155.333,164.283
	c-8.731-8.418-10.47-15.306-9.008-19.106c0.898-2.334,2.848-3.347,4.351-3.338c1.973,0.037,3.02,1.898,3.549,3.453l0.063-0.021
	c0.302,0.894,0.792,1.738,1.525,2.433c2.402,2.284,6.201,2.188,8.482-0.214c1.131-1.191,2.859-2.442,4.668-1.651
	c1.342,0.587,2.715,2.356,2.555,4.852C171.256,154.755,166.795,160.289,155.333,164.283z M131.702,271.129
	c-14.879-7.986-23.103-17.764-22.137-26.507c0.533-4.828,3.787-7.722,6.777-8.447c3.285-0.795,6.463,0.828,8.953,4.576l0.013-0.009
	c0.52,0.785,1.229,1.461,2.11,1.946c2.902,1.598,6.551,0.539,8.148-2.364c2.168-3.941,5.197-5.827,8.539-5.303
	c3.041,0.476,6.525,3.089,7.457,7.858C153.249,251.512,145.866,261.938,131.702,271.129z M123.829,326.577
	c-11.972,1.856-18.501-0.921-20.645-4.383c-1.314-2.126-0.936-4.333-0.027-5.483c1.223-1.548,3.338-1.256,4.896-0.738l0.003-0.009
	c0.89,0.296,1.86,0.392,2.849,0.231c3.27-0.532,5.49-3.615,4.959-6.886c-0.264-1.62-0.217-3.755,1.506-4.716
	c1.279-0.715,3.52-0.74,5.41,0.898C125.858,308.157,127.566,315.048,123.829,326.577z M289.366,305.492
	c1.893-1.637,4.133-1.613,5.412-0.898c1.691,0.943,1.766,3.017,1.518,4.625c-0.172,0.954-0.114,1.964,0.213,2.949
	c1.043,3.145,4.443,4.85,7.584,3.805c1.559-0.518,3.674-0.811,4.898,0.738c0.908,1.15,1.287,3.357-0.029,5.483
	c-2.142,3.461-8.672,6.239-20.643,4.383C284.581,315.048,286.289,308.157,289.366,305.492z M260.585,242.879
	c0.932-4.768,4.416-7.382,7.455-7.857c3.334-0.521,6.371,1.36,8.539,5.303l0.016-0.009c0.452,0.826,1.103,1.56,1.941,2.116
	c2.76,1.833,6.484,1.08,8.316-1.681c2.488-3.748,5.666-5.371,8.951-4.576c2.99,0.726,6.246,3.619,6.779,8.447
	c0.964,8.743-7.259,18.521-22.138,26.507C266.281,261.938,258.898,251.512,260.585,242.879z M185.417,20.125
	c0.717-4.698,4.014-7.394,6.963-7.981c3.232-0.647,6.268,1.074,8.547,4.838c1.184,1.956,3.307,2.993,5.44,2.886
	c1.929-0.092,3.779-1.109,4.853-2.886c2.281-3.764,5.316-5.482,8.549-4.838c2.947,0.587,6.244,3.283,6.961,7.98
	c1.303,8.537-6.373,18.47-20.655,26.926C191.79,38.593,184.114,28.661,185.417,20.125z M237.204,396.968
	c-2.887,1.143-10.873,3.18-31.115,3.18c-0.005,0-0.01,0.001-0.015,0.001c-0.005,0-0.01-0.001-0.015-0.001
	c-20.244,0-28.23-2.037-31.115-3.18c3.095-19.57,19.764-127.96,31.129-261.214C217.44,269.008,234.11,377.398,237.204,396.968z
	 M240.63,150.69c-0.162-2.496,1.211-4.265,2.555-4.852c1.805-0.789,3.535,0.461,4.666,1.651l0.023-0.023
	c0.649,0.69,1.47,1.239,2.43,1.566c3.129,1.067,6.545-0.605,7.617-3.742c0.529-1.555,1.576-3.416,3.551-3.453
	c1.475-0.01,3.451,1.004,4.35,3.338c1.462,3.801-0.276,10.689-9.007,19.106C245.352,160.289,240.891,154.755,240.63,150.69z
	 M349.351,163.473c-1.645,10.153-13.881,18.555-32.96,22.786c-13.015-14.581-18.039-28.548-13.44-37.75
	c2.605-5.215,7.512-7.115,11.201-6.687c4.111,0.477,7.063,3.633,8.305,8.887l0.008-0.002c0.215,0.915,0.647,1.793,1.305,2.553
	c2.17,2.502,5.961,2.773,8.463,0.602c4.08-3.537,8.318-4.375,11.934-2.359C347.417,153.315,350.282,157.719,349.351,163.473z"/>
<g>
</g>
<g>
</g>
<g>
</g>
<g>
</g>
<g>
</g>
<g>
</g>
<g>
</g>
<g>
</g>
<g>
</g>
<g>
</g>
<g>
</g>
<g>
</g>
<g>
</g>
<g>
</g>
<g>
</g>
</svg>
